<svg width="1500" height="950" xmlns="http://www.w3.org/2000/svg">
  <!-- Title Section -->
  <rect width="1500" height="60" fill="#1e40af" />
  <text x="750" y="40" font-size="28" font-weight="bold" text-anchor="middle" fill="white">
    AI-Powered Healthcare System Architecture
  </text>
  
  <!-- Main Architecture Container -->
  <rect x="30" y="70" width="1440" height="830" fill="#f8fafc" stroke="#cbd5e1" stroke-width="2" rx="10" />
  
  <!-- FRONTEND Section -->
  <rect x="50" y="100" width="420" height="750" fill="#e0f2fe" stroke="#0284c7" stroke-width="3" rx="8"/>
  <rect x="50" y="100" width="420" height="40" fill="#0284c7" rx="8,8,0,0"/>
  <text x="260" y="128" font-size="18" font-weight="bold" text-anchor="middle" fill="white">FRONTEND (React App)</text>
  <text x="260" y="150" font-size="12" text-anchor="middle" fill="#0c4a6e">Port 3000</text>
  
  <!-- Patient Interface -->
  <rect x="70" y="170" width="180" height="300" fill="#dbeafe" stroke="#3b82f6" stroke-width="2" rx="6"/>
  <text x="160" y="190" font-size="15" font-weight="bold" text-anchor="middle" fill="#1e3a8a">👤 Patient Interface</text>
  
  <!-- Patient Components -->
  <rect x="85" y="210" width="140" height="40" fill="#bfdbfe" stroke="#3b82f6" stroke-width="1.5" rx="4"/>
  <text x="155" y="230" font-size="12" font-weight="bold" text-anchor="middle" fill="#1e40af">Dashboard</text>
  <text x="155" y="242" font-size="10" text-anchor="middle" fill="#1e40af">View History</text>
  
  <rect x="85" y="260" width="140" height="60" fill="#bfdbfe" stroke="#3b82f6" stroke-width="1.5" rx="4"/>
  <text x="155" y="275" font-size="12" font-weight="bold" text-anchor="middle" fill="#1e40af">Symptom Input</text>
  <text x="155" y="290" font-size="9" text-anchor="middle" fill="#0c4a6e">Text &amp; Voice Input</text>
  <text x="155" y="302" font-size="9" text-anchor="middle" fill="#0c4a6e">Form Validation</text>
  
  <rect x="85" y="330" width="140" height="50" fill="#bfdbfe" stroke="#3b82f6" stroke-width="1.5" rx="4"/>
  <text x="155" y="348" font-size="12" font-weight="bold" text-anchor="middle" fill="#1e40af">Results Display</text>
  <text x="155" y="362" font-size="9" text-anchor="middle" fill="#0c4a6e">Predictions &amp; Recovery</text>
  
  <!-- Doctor Interface -->
  <rect x="270" y="170" width="180" height="300" fill="#fce7f3" stroke="#ec4899" stroke-width="2" rx="6"/>
  <text x="360" y="190" font-size="15" font-weight="bold" text-anchor="middle" fill="#831843">👨‍⚕️ Doctor Interface</text>
  
  <!-- Doctor Components -->
  <rect x="285" y="210" width="140" height="40" fill="#fbcfe8" stroke="#ec4899" stroke-width="1.5" rx="4"/>
  <text x="355" y="230" font-size="12" font-weight="bold" text-anchor="middle" fill="#831843">Dashboard</text>
  <text x="355" y="242" font-size="10" text-anchor="middle" fill="#831843">Overview</text>
  
  <rect x="285" y="260" width="140" height="40" fill="#fbcfe8" stroke="#ec4899" stroke-width="1.5" rx="4"/>
  <text x="355" y="278" font-size="12" font-weight="bold" text-anchor="middle" fill="#831843">Patient Records</text>
  <text x="355" y="290" font-size="9" text-anchor="middle" fill="#831843">View All Patients</text>
  
  <rect x="285" y="310" width="140" height="40" fill="#fbcfe8" stroke="#ec4899" stroke-width="1.5" rx="4"/>
  <text x="355" y="328" font-size="12" font-weight="bold" text-anchor="middle" fill="#831843">Severe Cases</text>
  <text x="355" y="340" font-size="9" text-anchor="middle" fill="#831843">Critical Monitoring</text>
  
  <rect x="285" y="360" width="140" height="20" fill="#fbcfe8" stroke="#ec4899" stroke-width="1.5" rx="3"/>
  <text x="355" y="373" font-size="9" text-anchor="middle" fill="#831843">Patient Details</text>
  
  <!-- Shared Components -->
  <rect x="70" y="490" width="380" height="60" fill="#f0f9ff" stroke="#0284c7" stroke-width="2" rx="6"/>
  <text x="260" y="510" font-size="14" font-weight="bold" text-anchor="middle" fill="#0c4a6e">Shared Components</text>
  <text x="260" y="525" font-size="10" text-anchor="middle" fill="#0c4a6e">Authentication • Profile Management</text>
  <text x="260" y="538" font-size="10" text-anchor="middle" fill="#0c4a6e">Settings • Health History • Medication</text>
  
  <!-- AI Analysis Engine -->
  <rect x="70" y="570" width="380" height="50" fill="#f0f9ff" stroke="#0284c7" stroke-width="2" rx="6"/>
  <text x="260" y="590" font-size="14" font-weight="bold" text-anchor="middle" fill="#0c4a6e">AI Analysis Engine</text>
  <text x="260" y="605" font-size="9" text-anchor="middle" fill="#0c4a6e">Symptom Processing • API Integration • Result Parsing</text>
  
  <!-- SERVER/BACKEND Section -->
  <rect x="500" y="100" width="260" height="260" fill="#f3e8ff" stroke="#9333ea" stroke-width="3" rx="8"/>
  <rect x="500" y="100" width="260" height="40" fill="#9333ea" rx="8,8,0,0"/>
  <text x="630" y="128" font-size="18" font-weight="bold" text-anchor="middle" fill="white">SERVER/BACKEND</text>
  
  <!-- Server Components -->
  <rect x="520" y="160" width="220" height="50" fill="#e9d5ff" stroke="#9333ea" stroke-width="2" rx="5"/>
  <text x="630" y="182" font-size="14" font-weight="bold" text-anchor="middle" fill="#581c87">Express Server</text>
  <text x="630" y="196" font-size="11" text-anchor="middle" fill="#6b21a8">Port 3005 • Node.js Runtime</text>
  
  <rect x="520" y="225" width="220" height="50" fill="#e9d5ff" stroke="#9333ea" stroke-width="2" rx="5"/>
  <text x="630" y="247" font-size="14" font-weight="bold" text-anchor="middle" fill="#581c87">Proxy Routes</text>
  <text x="630" y="261" font-size="10" text-anchor="middle" fill="#6b21a8">/api/maps/* • /api/hospitals/*</text>
  
  <rect x="520" y="290" width="220" height="50" fill="#e9d5ff" stroke="#9333ea" stroke-width="2" rx="5"/>
  <text x="630" y="312" font-size="14" font-weight="bold" text-anchor="middle" fill="#581c87">Route Handlers</text>
  <text x="630" y="326" font-size="11" text-anchor="middle" fill="#6b21a8">RESTful API Endpoints</text>
  
  <!-- EXTERNAL SERVICES Section -->
  <rect x="800" y="100" width="420" height="750" fill="#dcfce7" stroke="#16a34a" stroke-width="3" rx="8"/>
  <rect x="800" y="100" width="420" height="40" fill="#16a34a" rx="8,8,0,0"/>
  <text x="1010" y="128" font-size="18" font-weight="bold" text-anchor="middle" fill="white">EXTERNAL SERVICES</text>
  
  <!-- External Services Components -->
  <rect x="820" y="160" width="380" height="100" fill="#bbf7d0" stroke="#16a34a" stroke-width="2" rx="5"/>
  <text x="1010" y="185" font-size="15" font-weight="bold" text-anchor="middle" fill="#14532d">🧠 Google Gemini AI</text>
  <text x="1010" y="200" font-size="10" text-anchor="middle" fill="#166534">(v2.0-flash-exp)</text>
  <text x="1010" y="215" font-size="11" text-anchor="middle" fill="#166534">Disease Prediction Engine</text>
  <text x="1010" y="230" font-size="11" text-anchor="middle" fill="#166534">Symptom Analysis &amp; Matching</text>
  <text x="1010" y="245" font-size="11" text-anchor="middle" fill="#166534">Treatment Recommendations</text>
  
  <rect x="820" y="280" width="380" height="90" fill="#bbf7d0" stroke="#16a34a" stroke-width="2" rx="5"/>
  <text x="1010" y="305" font-size="15" font-weight="bold" text-anchor="middle" fill="#14532d">🗺️ Google Maps Platform</text>
  <text x="1010" y="325" font-size="11" text-anchor="middle" fill="#166534">Hospital &amp; Clinic Search</text>
  <text x="1010" y="340" font-size="11" text-anchor="middle" fill="#166534">Geolocation Services</text>
  <text x="1010" y="355" font-size="11" text-anchor="middle" fill="#166534">Distance &amp; Route Calculation</text>
  
  <rect x="820" y="390" width="380" height="90" fill="#bbf7d0" stroke="#16a34a" stroke-width="2" rx="5"/>
  <text x="1010" y="415" font-size="15" font-weight="bold" text-anchor="middle" fill="#14532d">🔥 Firebase Services</text>
  <text x="1010" y="435" font-size="11" text-anchor="middle" fill="#166534">User Authentication</text>
  <text x="1010" y="450" font-size="11" text-anchor="middle" fill="#166534">Cloud Firestore Database</text>
  <text x="1010" y="465" font-size="11" text-anchor="middle" fill="#166534">Real-time Synchronization</text>
  
  <!-- DATABASE Section -->
  <rect x="500" y="390" width="260" height="400" fill="#fef3c7" stroke="#f59e0b" stroke-width="3" rx="8"/>
  <rect x="500" y="390" width="260" height="40" fill="#f59e0b" rx="8,8,0,0"/>
  <text x="630" y="418" font-size="18" font-weight="bold" text-anchor="middle" fill="white">DATABASE LAYER</text>
  
  <!-- Database Components -->
  <rect x="520" y="450" width="220" height="290" fill="#fde68a" stroke="#f59e0b" stroke-width="2" rx="5"/>
  <text x="630" y="470" font-size="14" font-weight="bold" text-anchor="middle" fill="#78350f">Firebase Cloud Firestore</text>
  <text x="630" y="485" font-size="10" text-anchor="middle" fill="#78350f">(NoSQL Database)</text>
  
  <text x="630" y="505" font-size="12" font-weight="bold" text-anchor="middle" fill="#92400e">Collections:</text>
  
  <text x="630" y="525" font-size="11" font-weight="bold" text-anchor="middle" fill="#92400e">• users</text>
  <text x="630" y="538" font-size="10" text-anchor="middle" fill="#92400e">Patient &amp; Doctor profiles</text>
  
  <text x="630" y="555" font-size="11" font-weight="bold" text-anchor="middle" fill="#92400e">• previousAnalyses</text>
  <text x="630" y="568" font-size="10" text-anchor="middle" fill="#92400e">Patient symptom history</text>
  
  <text x="630" y="585" font-size="11" font-weight="bold" text-anchor="middle" fill="#92400e">• severeCases</text>
  <text x="630" y="598" font-size="10" text-anchor="middle" fill="#92400e">Critical patient monitoring</text>
  
  <text x="630" y="615" font-size="11" font-weight="bold" text-anchor="middle" fill="#92400e">• userProfiles</text>
  <text x="630" y="628" font-size="10" text-anchor="middle" fill="#92400e">User settings &amp; preferences</text>
  
  <text x="630" y="645" font-size="11" font-weight="bold" text-anchor="middle" fill="#92400e">• medications</text>
  <text x="630" y="658" font-size="10" text-anchor="middle" fill="#92400e">Medication schedules</text>
  
  <line x1="530" y1="675" x2="730" y2="675" stroke="#f59e0b" stroke-width="1.5"/>
  
  <text x="630" y="690" font-size="12" font-weight="bold" text-anchor="middle" fill="#78350f">Features:</text>
  <text x="630" y="705" font-size="10" text-anchor="middle" fill="#92400e">Real-time Sync • Offline Support</text>
  
  <!-- Data Security -->
  <rect x="520" y="720" width="220" height="30" fill="#fde68a" stroke="#f59e0b" stroke-width="2" rx="4"/>
  <text x="630" y="735" font-size="12" font-weight="bold" text-anchor="middle" fill="#78350f">Security Rules</text>
  <text x="630" y="746" font-size="9" text-anchor="middle" fill="#92400e">Role-based Access Control</text>
  
  <!-- ARROWS AND CONNECTIONS -->
  
  <!-- Patient Flow -->
  <line x1="160" y1="210" x2="160" y2="225" stroke="#3b82f6" stroke-width="3" marker-end="url(#arrowblue)"/>
  <line x1="160" y1="250" x2="160" y2="265" stroke="#3b82f6" stroke-width="3" marker-end="url(#arrowblue)"/>
  <line x1="160" y1="320" x2="160" y2="335" stroke="#3b82f6" stroke-width="3" marker-end="url(#arrowblue)"/>
  
  <!-- Doctor Flow -->
  <line x1="355" y1="210" x2="355" y2="225" stroke="#ec4899" stroke-width="3" marker-end="url(#arrowpink)"/>
  <line x1="355" y1="250" x2="355" y2="265" stroke="#ec4899" stroke-width="3" marker-end="url(#arrowpink)"/>
  <line x1="355" y1="300" x2="355" y2="315" stroke="#ec4899" stroke-width="3" marker-end="url(#arrowpink)"/>
  <line x1="355" y1="350" x2="355" y2="365" stroke="#ec4899" stroke-width="3" marker-end="url(#arrowpink)"/>
  
  <!-- Both interfaces to Shared Components -->
  <line x1="160" y1="380" x2="200" y2="490" stroke="#3b82f6" stroke-width="3" marker-end="url(#arrowblue)"/>
  <line x1="355" y1="380" x2="320" y2="490" stroke="#ec4899" stroke-width="3" marker-end="url(#arrowpink)"/>
  
  <!-- Shared Components to AI Engine -->
  <line x1="260" y1="550" x2="260" y2="570" stroke="#0284c7" stroke-width="3" marker-end="url(#arrowcyan)"/>
  
  <!-- AI Engine to Gemini AI -->
  <path d="M 450 595 Q 620 550, 820 210" stroke="#16a34a" stroke-width="3.5" fill="none" marker-end="url(#arrowgreen)"/>
  <rect x="580" y="320" width="80" height="22" fill="white" stroke="#16a34a" stroke-width="1.5" rx="3"/>
  <text x="620" y="335" font-size="11" font-weight="bold" text-anchor="middle" fill="#16a34a">Direct API</text>
  
  <!-- Frontend to Express Server -->
  <path d="M 470 500 Q 520 380, 520 230" stroke="#9333ea" stroke-width="3.5" fill="none" marker-end="url(#arrowpurple)"/>
  <rect x="470" y="320" width="60" height="22" fill="white" stroke="#9333ea" stroke-width="1.5" rx="3"/>
  <text x="500" y="335" font-size="11" font-weight="bold" text-anchor="middle" fill="#9333ea">HTTPS</text>
  
  <!-- Express to Google Maps -->
  <path d="M 760 230 Q 820 250, 820 320" stroke="#16a34a" stroke-width="3.5" fill="none" marker-end="url(#arrowgreen)"/>
  
  <!-- Frontend to Firebase (bidirectional) -->
  <path d="M 470 570 Q 650 500, 820 425" stroke="#16a34a" stroke-width="3.5" fill="none" marker-end="url(#arrowgreen)"/>
  <path d="M 820 435 Q 650 510, 470 580" stroke="#16a34a" stroke-width="3" fill="none" marker-end="url(#arrowgreen)" stroke-dasharray="6,4"/>
  <text x="650" y="520" font-size="10" font-weight="bold" text-anchor="middle" fill="#16a34a">Real-time Sync</text>
  
  <!-- Firebase Services to Firestore -->
  <path d="M 820 435 Q 770 520, 740 580" stroke="#f59e0b" stroke-width="3.5" fill="none" marker-end="url(#arroworange)"/>
  
  <!-- Frontend to Firestore (Data Storage) -->
  <path d="M 450 595 Q 520 620, 520 650" stroke="#f59e0b" stroke-width="3.5" fill="none" marker-end="url(#arroworange)"/>
  
  <!-- Arrow markers -->
  <defs>
    <marker id="arrowblue" markerWidth="12" markerHeight="12" refX="10" refY="4" orient="auto" markerUnits="strokeWidth">
      <path d="M0,0 L0,8 L10,4 z" fill="#3b82f6"/>
    </marker>
    <marker id="arrowpink" markerWidth="12" markerHeight="12" refX="10" refY="4" orient="auto" markerUnits="strokeWidth">
      <path d="M0,0 L0,8 L10,4 z" fill="#ec4899"/>
    </marker>
    <marker id="arrowcyan" markerWidth="12" markerHeight="12" refX="10" refY="4" orient="auto" markerUnits="strokeWidth">
      <path d="M0,0 L0,8 L10,4 z" fill="#0284c7"/>
    </marker>
    <marker id="arrowpurple" markerWidth="12" markerHeight="12" refX="10" refY="4" orient="auto" markerUnits="strokeWidth">
      <path d="M0,0 L0,8 L10,4 z" fill="#9333ea"/>
    </marker>
    <marker id="arrowgreen" markerWidth="12" markerHeight="12" refX="10" refY="4" orient="auto" markerUnits="strokeWidth">
      <path d="M0,0 L0,8 L10,4 z" fill="#16a34a"/>
    </marker>
    <marker id="arroworange" markerWidth="12" markerHeight="12" refX="10" refY="4" orient="auto" markerUnits="strokeWidth">
      <path d="M0,0 L0,8 L10,4 z" fill="#f59e0b"/>
    </marker>
  </defs>
  
  <!-- Legend -->
  <rect x="50" y="850" width="1400" height="70" fill="#f8fafc" stroke="#64748b" stroke-width="1.5" rx="5"/>
  <text x="70" y="870" font-size="13" font-weight="bold" fill="#1e293b">Legend:</text>
  
  <line x1="130" y1="868" x2="160" y2="868" stroke="#3b82f6" stroke-width="3" marker-end="url(#arrowblue)"/>
  <text x="170" y="872" font-size="11" fill="#1e293b">Patient Flow</text>
  
  <line x1="250" y1="868" x2="280" y2="868" stroke="#ec4899" stroke-width="3" marker-end="url(#arrowpink)"/>
  <text x="290" y="872" font-size="11" fill="#1e293b">Doctor Flow</text>
  
  <line x1="370" y1="868" x2="400" y2="868" stroke="#9333ea" stroke-width="3" marker-end="url(#arrowpurple)"/>
  <text x="410" y="872" font-size="11" fill="#1e293b">HTTP/HTTPS</text>
  
  <line x1="500" y1="868" x2="530" y2="868" stroke="#16a34a" stroke-width="3" marker-end="url(#arrowgreen)"/>
  <text x="540" y="872" font-size="11" fill="#1e293b">API Calls</text>
  
  <line x1="620" y1="868" x2="650" y2="868" stroke="#f59e0b" stroke-width="3" marker-end="url(#arroworange)"/>
  <text x="660" y="872" font-size="11" fill="#1e293b">Data Storage</text>
  
  <line x1="750" y1="868" x2="780" y2="868" stroke="#16a34a" stroke-width="3" stroke-dasharray="6,4" marker-end="url(#arrowgreen)"/>
  <text x="790" y="872" font-size="11" fill="#1e293b">Real-time Sync</text>
  
  <text x="70" y="895" font-size="11" fill="#475569">Technologies: React 18 • Express.js • Node.js • Gemini AI 2.0 • Firebase • Google Maps • Tailwind CSS • Framer Motion</text>
</svg>